<?xml version="1.0" encoding="iso-8859-1"?>
<!-- Generator: Adobe Illustrator 19.0.0, SVG Export Plug-In . SVG Version: 6.00 Build 0)  -->
<svg xmlns="http://www.w3.org/2000/svg" xmlns:xlink="http://www.w3.org/1999/xlink" version="1.1" id="Layer_1" x="0px" y="0px" viewBox="0 0 512.001 512.001" style="enable-background:new 0 0 512.001 512.001;" xml:space="preserve" width="512px" height="512px">
<g>
	<g>
		<path d="M414.852,25.581C402.988,11.285,387.249,2.545,371.514,0l4.927,12.569l0.421,31.234l14.646,31.542L360.309,54.85    l-6.882-28.672L333.864,7.335c-1.51,0.99-2.981,2.06-4.396,3.236c-13.509,11.221-19.488,28.553-17.89,46.557    c-6.985,0.663-13.593,3.193-19.072,7.749c-13.235,10.993-16.124,30.38-8.751,48.064l-12.678,10.531    c2.098,12.471-2.778,25.635-13.706,33.57l-42.697,31.005l7.208,8.682c2.844,3.446,7.998,3.926,11.431,1.062l5.204-4.314    l4.216,5.089c1.747,2.102,4.874,2.394,6.986,0.647c2.092-1.75,2.374-4.88,0.645-6.987l-4.234-5.084l2.549-2.106l4.217,5.08    c1.762,2.112,4.874,2.391,6.987,0.645c2.092-1.747,2.391-4.875,0.662-6.975l-4.233-5.084l2.533-2.118l4.233,5.084    c1.745,2.103,4.874,2.393,6.985,0.656c2.112-1.755,2.391-4.876,0.645-6.987l-4.232-5.093l38.408-31.878    c15.972,10.483,35.587,11.264,48.854,0.246c5.477-4.548,9.176-10.562,11.118-17.307c17.247,4.827,35.443,2.29,49.046-9.026    C437.755,92.489,438.18,53.665,414.852,25.581z M348.381,108.378c-9.139,8.91-23.794,8.702-32.703-0.454    c-8.909-9.156-8.701-23.812,0.456-32.721c9.157-8.909,23.811-8.7,32.703,0.455C357.762,84.816,357.557,99.461,348.381,108.378z" fill="#FFFFFF"/>
	</g>
</g>
<g>
	<g>
		<path d="M252.52,118.051c-6.161-8.485-18.033-10.367-26.518-4.207l-64.187,46.611l-82.412,6.285l38.081-9.702    c-5.895-3.43-12.938-4.738-20.049-3.242l-49.399,10.397c-15.298,3.221-25.09,18.232-21.871,33.531l28.669,136.21    c-0.615,10.486-3.478,59.243-3.885,66.167l-47.157,78.38c-6.296,10.466-2.916,24.054,7.549,30.35    c10.466,6.297,24.054,2.916,30.35-7.549l49.964-83.048c1.844-3.066,2.917-6.532,3.127-10.105    c0.445-7.581,4.101-69.845,4.543-77.386l18.067-3.803c6.457,15.707,23.259,56.583,24.363,59.268l1.065,103.9    c0.121,11.77,9.561,21.53,21.495,21.857c0.205,0.006,0.406,0.031,0.613,0.031h0.001c0.077,0,0.155,0,0.232,0    c12.213-0.126,22.012-10.127,21.887-22.34l-1.109-108.151c-0.029-2.808-0.593-5.584-1.66-8.182l-24.005-58.396l-22.073-104.873    L82.289,204.6l87.775-6.694c3.505-0.267,6.868-1.503,9.712-3.568l68.537-49.77C256.798,138.407,258.681,126.534,252.52,118.051z" fill="#FFFFFF"/>
	</g>
</g>
<g>
	<g>
		<path d="M109.102,93.056c-4.767-22.65-26.992-37.142-49.636-32.375c-22.647,4.767-37.142,26.99-32.375,49.636    c4.767,22.655,26.997,37.14,49.636,32.375C99.374,137.925,113.869,115.703,109.102,93.056z" fill="#FFFFFF"/>
	</g>
</g>
<g>
	<g>
		<path d="M497.446,484.141h-32.777l-40.841-238.473l3.459,0.934c6.702,1.809,13.605-2.159,15.414-8.864    c1.809-6.704-2.16-13.605-8.864-15.414l-14.686-3.963l-3.036-17.724c-0.935-5.459-6.121-9.13-11.578-8.193    c-5.459,0.935-9.128,6.119-8.193,11.578l1.47,8.582l-33.438-9.022c-2.298-7.662-8.383-13.996-16.674-16.234    c-12.745-3.439-25.865,4.105-29.303,16.85c-3.439,12.745,4.105,25.865,16.85,29.303c8.291,2.237,16.737-0.177,22.577-5.643    l44.665,12.051l41.826,244.231H406.23c-7.693,0-13.93,6.237-13.93,13.93S398.538,512,406.23,512h91.214    c7.694,0,13.93-6.237,13.93-13.93S505.139,484.141,497.446,484.141z" fill="#FFFFFF"/>
	</g>
</g>
<g>
</g>
<g>
</g>
<g>
</g>
<g>
</g>
<g>
</g>
<g>
</g>
<g>
</g>
<g>
</g>
<g>
</g>
<g>
</g>
<g>
</g>
<g>
</g>
<g>
</g>
<g>
</g>
<g>
</g>
</svg>
