<?xml version="1.0" encoding="iso-8859-1"?>
<!-- Generator: Adobe Illustrator 19.0.0, SVG Export Plug-In . SVG Version: 6.00 Build 0)  -->
<svg xmlns="http://www.w3.org/2000/svg" xmlns:xlink="http://www.w3.org/1999/xlink" version="1.1" id="Layer_1" x="0px" y="0px" viewBox="0 0 512 512" style="enable-background:new 0 0 512 512;" xml:space="preserve" width="512px" height="512px">
<g>
	<g>
		<path d="M483.626,95.329h-37.321c-5.915,0-10.711,4.797-10.711,10.711c0,5.915,4.797,10.711,10.711,10.711h37.321    c3.834,0,6.952,3.123,6.952,6.962v264.569c0,3.839-3.118,6.962-6.952,6.962h-67.65l-19.074-61.035    c-1.398-4.472-5.539-7.517-10.224-7.517H125.322c-4.685,0-8.826,3.045-10.224,7.517l-19.074,61.035h-67.65    c-3.834,0-6.952-3.123-6.952-6.962V123.714c0-3.839,3.119-6.962,6.952-6.962h333.828c5.915,0,10.711-4.797,10.711-10.711    s-4.797-10.711-10.711-10.711H28.374C12.728,95.329,0,108.063,0,123.714v264.569c0,15.651,12.728,28.385,28.374,28.385h75.431    c0.058,0,0.116,0,0.174,0h304.04c0.026,0,0.052,0.003,0.078,0.003c0.028,0,0.056-0.003,0.083-0.003h75.445    c15.645,0,28.374-12.734,28.374-28.385V123.714C512,108.061,499.271,95.329,483.626,95.329z M118.469,395.245l14.728-47.13    h245.606l14.728,47.13H118.469z" fill="#FFFFFF"/>
	</g>
</g>
<g>
	<g>
		<path d="M409.172,95.329h-7.855c-5.915,0-10.711,4.797-10.711,10.711c0,5.915,4.797,10.711,10.711,10.711h7.855    c5.915,0,10.711-4.797,10.711-10.711C419.883,100.125,415.086,95.329,409.172,95.329z" fill="#FFFFFF"/>
	</g>
</g>
<g>
	<g>
		<path d="M339.903,191.697H172.098c-19.225,0-34.865,15.641-34.865,34.865c0,19.225,15.641,34.866,34.865,34.866    c19.225,0,34.865-15.642,34.865-34.866c0-4.762-0.962-9.304-2.698-13.443h103.47c-1.736,4.139-2.698,8.68-2.698,13.443    c0,19.225,15.641,34.866,34.865,34.866s34.865-15.642,34.865-34.866C374.768,207.338,359.127,191.697,339.903,191.697z     M172.098,240.006c-7.412,0-13.443-6.03-13.443-13.444c0-7.412,6.03-13.443,13.443-13.443s13.443,6.031,13.443,13.443    C185.541,233.976,179.511,240.006,172.098,240.006z M339.902,240.006c-7.412,0-13.443-6.03-13.443-13.444    c0-7.412,6.03-13.443,13.443-13.443c7.412,0,13.443,6.03,13.443,13.443C353.344,233.976,347.314,240.006,339.902,240.006z" fill="#FFFFFF"/>
	</g>
</g>
<g>
	<g>
		<path d="M443.094,135.677H68.906c-15.947,0-28.92,12.974-28.92,28.92v122.109c0,15.947,12.974,28.92,28.92,28.92h374.188    c15.947,0,28.921-12.974,28.921-28.92V164.598C472.015,148.651,459.041,135.677,443.094,135.677z M93.188,294.204H68.906    c-4.135,0-7.498-3.363-7.498-7.498V164.598c0-4.133,3.363-7.498,7.498-7.498h24.283V294.204z M397.389,294.204H114.611V157.1    h282.778V294.204z M450.592,286.707c0,4.133-3.364,7.498-7.498,7.498h-24.283V157.1h24.283c4.133,0,7.498,3.364,7.498,7.498    V286.707z" fill="#FFFFFF"/>
	</g>
</g>
<g>
	<g>
		<path d="M156.117,361.505c-5.916,0-10.711,4.797-10.711,10.711v5.356c0,5.915,4.795,10.711,10.711,10.711    c5.916,0,10.711-4.797,10.711-10.711v-5.356C166.828,366.3,162.033,361.505,156.117,361.505z" fill="#FFFFFF"/>
	</g>
</g>
<g>
	<g>
		<path d="M355.883,361.505c-5.915,0-10.711,4.797-10.711,10.711v5.356c0,5.915,4.797,10.711,10.711,10.711    c5.915,0,10.711-4.797,10.711-10.711v-5.356C366.594,366.3,361.798,361.505,355.883,361.505z" fill="#FFFFFF"/>
	</g>
</g>
<g>
</g>
<g>
</g>
<g>
</g>
<g>
</g>
<g>
</g>
<g>
</g>
<g>
</g>
<g>
</g>
<g>
</g>
<g>
</g>
<g>
</g>
<g>
</g>
<g>
</g>
<g>
</g>
<g>
</g>
</svg>
